<svg width="220" height="45" viewBox="0 0 220 45" fill="none" xmlns="http://www.w3.org/2000/svg">
<path d="M40.6895 33.2737C38.6595 32.2306 37.0924 30.7575 35.9858 28.8519C34.8792 26.9464 34.3271 24.7232 34.3271 22.1825C34.3271 19.6418 34.8644 17.5164 35.9363 15.6109C37.0083 13.7053 38.5184 12.2224 40.4667 11.1646C42.415 10.1068 44.6579 9.57666 47.2004 9.57666C51.1936 9.57666 54.3302 10.676 56.6078 12.8747C58.8854 15.0734 60.0242 18.0783 60.0242 21.8894C60.0242 22.6394 59.9747 23.4358 59.8756 24.2835H41.0113C41.2416 25.8153 41.9942 27.0368 43.2642 27.948C44.5342 28.8592 46.1433 29.3161 48.0916 29.3161C49.4111 29.3161 50.6836 29.1133 51.9041 28.7053C53.1246 28.2974 54.1322 27.7355 54.9244 27.0197L58.5883 30.733C57.301 32.0351 55.7166 33.0465 53.8351 33.7623C51.9536 34.4781 49.9558 34.8373 47.8441 34.8373C45.1036 34.8373 42.7195 34.3169 40.6895 33.2737ZM53.6866 19.9838C53.5554 18.4203 52.9265 17.1817 51.8051 16.2705C50.6836 15.3592 49.2131 14.9024 47.3985 14.9024C45.5838 14.9024 44.2222 15.3495 43.1156 16.246C42.009 17.1426 41.3406 18.3886 41.1104 19.9838H53.6866Z" fill="#514ED8"/>
<path d="M69.5557 33.2737C67.5257 32.2306 65.9586 30.7575 64.852 28.8519C63.7454 26.9464 63.1934 24.7232 63.1934 22.1825C63.1934 19.6418 63.7306 17.5164 64.8025 15.6109C65.8745 13.7053 67.3846 12.2224 69.3329 11.1646C71.2812 10.1068 73.5242 9.57666 76.0666 9.57666C80.0598 9.57666 83.1964 10.676 85.474 12.8747C87.7516 15.0734 88.8904 18.0783 88.8904 21.8894C88.8904 22.6394 88.8409 23.4358 88.7419 24.2835H69.8776C70.1078 25.8153 70.8604 27.0368 72.1304 27.948C73.4004 28.8592 75.0095 29.3161 76.9579 29.3161C78.2774 29.3161 79.5498 29.1133 80.7703 28.7053C81.9908 28.2974 82.9984 27.7355 83.7906 27.0197L87.4545 30.733C86.1672 32.0351 84.5828 33.0465 82.7013 33.7623C80.8198 34.4781 78.822 34.8373 76.7103 34.8373C73.9698 34.8373 71.5857 34.3169 69.5557 33.2737ZM82.5528 19.9838C82.4216 18.4203 81.7928 17.1817 80.6713 16.2705C79.5498 15.3592 78.0793 14.9024 76.2647 14.9024C74.45 14.9024 73.0884 15.3495 71.9818 16.246C70.8752 17.1426 70.2068 18.3886 69.9766 19.9838H82.5528Z" fill="#514ED8"/>
<path d="M93.5439 10.0651H99.2379L99.6835 12.9478C100.674 11.8411 101.904 10.9934 103.372 10.4071C104.84 9.82075 106.435 9.52759 108.15 9.52759C110.46 9.52759 112.515 10.0577 114.314 11.1155C116.114 12.1734 117.515 13.6636 118.523 15.5862C119.531 17.5089 120.033 19.6905 120.033 22.1335C120.033 24.5765 119.531 26.7581 118.523 28.6807C117.515 30.6033 116.114 32.0936 114.314 33.1514C112.515 34.2092 110.46 34.7393 108.15 34.7393C106.534 34.7393 105.038 34.4779 103.669 33.9576C102.298 33.4372 101.119 32.6872 100.129 31.71V44.9999H93.5439V10.0651ZM101.961 27.1172C103.216 28.4193 104.833 29.0716 106.813 29.0716C108.794 29.0716 110.361 28.4193 111.616 27.1172C112.871 25.8151 113.498 24.1538 113.498 22.1335C113.498 20.1131 112.871 18.4519 111.616 17.1497C110.361 15.8476 108.762 15.1953 106.813 15.1953C104.865 15.1953 103.216 15.8476 101.961 17.1497C100.706 18.4519 100.08 20.1131 100.08 22.1335C100.08 24.1538 100.706 25.8151 101.961 27.1172Z" fill="#514ED8"/>
<path d="M129.119 33.1514C127.319 32.0936 125.918 30.6033 124.911 28.6807C123.903 26.7581 123.4 24.5765 123.4 22.1335C123.4 19.6905 123.903 17.5089 124.911 15.5862C125.918 13.6636 127.319 12.1734 129.119 11.1155C130.919 10.0577 132.974 9.52759 135.283 9.52759C136.999 9.52759 138.593 9.82075 140.061 10.4071C141.529 10.9934 142.76 11.8411 143.75 12.9478L144.196 10.0651H149.89V34.2019H144.196L143.75 31.2703C142.728 32.4111 141.49 33.2735 140.037 33.8598C138.583 34.4462 136.999 34.7393 135.283 34.7393C132.974 34.7393 130.919 34.2092 129.119 33.1514ZM131.818 27.1172C133.073 28.4193 134.672 29.0716 136.62 29.0716C138.569 29.0716 140.217 28.4193 141.472 27.1172C142.728 25.8151 143.354 24.1538 143.354 22.1335C143.354 20.1131 142.728 18.4519 141.472 17.1497C140.217 15.8476 138.601 15.1953 136.62 15.1953C134.64 15.1953 133.073 15.8476 131.818 17.1497C130.562 18.4519 129.936 20.1131 129.936 22.1335C129.936 24.1538 130.562 25.8151 131.818 27.1172Z" fill="#514ED8"/>
<path d="M156.227 0H162.812V34.202H156.227V0Z" fill="#514ED8"/>
<path d="M173.927 33.2002C171.93 32.1742 170.387 30.7084 169.298 28.8028C168.209 26.8973 167.664 24.6742 167.664 22.1335C167.664 19.5927 168.216 17.4673 169.323 15.5618C170.429 13.6563 171.972 12.1734 173.952 11.1155C175.933 10.0577 178.228 9.52759 180.834 9.52759C184.466 9.52759 187.6 10.7808 190.242 13.2898L186.429 17.3452C185.736 16.6611 184.927 16.131 184.003 15.7572C183.08 15.3835 182.104 15.1953 181.082 15.1953C179.035 15.1953 177.376 15.8379 176.106 17.1253C174.836 18.4128 174.2 20.0813 174.2 22.1335C174.2 24.1856 174.836 25.8541 176.106 27.1416C177.376 28.4291 179.035 29.0716 181.082 29.0716C183.327 29.0716 185.209 28.2898 186.726 26.7263L190.588 30.8305C187.848 33.4372 184.63 34.7393 180.933 34.7393C178.26 34.7393 175.925 34.2263 173.927 33.2002Z" fill="#514ED8"/>
<path d="M198.882 33.1269C196.885 32.052 195.342 30.5618 194.253 28.6563C193.164 26.7507 192.619 24.5765 192.619 22.1335C192.619 19.6905 193.164 17.5162 194.253 15.6107C195.342 13.7051 196.885 12.2149 198.882 11.14C200.88 10.065 203.198 9.52759 205.839 9.52759C208.481 9.52759 210.798 10.065 212.796 11.14C214.793 12.2149 216.336 13.7051 217.425 15.6107C218.514 17.5162 219.059 19.6905 219.059 22.1335C219.059 24.5765 218.514 26.7507 217.425 28.6563C216.336 30.5618 214.793 32.052 212.796 33.1269C210.798 34.2019 208.481 34.7393 205.839 34.7393C203.198 34.7393 200.878 34.2019 198.882 33.1269ZM201.012 27.0927C202.249 28.412 203.859 29.0716 205.839 29.0716C207.82 29.0716 209.429 28.412 210.666 27.0927C211.904 25.7735 212.523 24.1196 212.523 22.1335C212.523 20.1473 211.904 18.4934 210.666 17.1742C209.429 15.855 207.82 15.1953 205.839 15.1953C203.859 15.1953 202.249 15.855 201.012 17.1742C199.774 18.4934 199.155 20.1473 199.155 22.1335C199.155 24.1196 199.774 25.7735 201.012 27.0927Z" fill="#514ED8"/>
<path d="M14.1954 44.8706H13.2324C13.5468 44.8706 13.8612 44.8633 14.1732 44.8486L14.1954 44.8706Z" fill="#B1E50E"/>
<path d="M12.5509 9.58862C11.3749 9.58862 10.2337 9.74986 9.1543 10.0479C10.1965 9.80849 11.271 9.65947 12.3776 9.60817C12.536 9.60084 12.6944 9.59595 12.8554 9.59351C12.7539 9.59107 12.6524 9.58862 12.5509 9.58862Z" fill="#514ED8"/>
<path d="M22.7882 12.3201C25.2192 14.8339 26.7046 18.2395 26.7046 21.9699C26.7046 29.6751 20.3546 35.9414 12.5489 35.9414C12.4623 35.9414 12.3757 35.9414 12.2865 35.939C10.868 35.9121 9.46184 35.6751 8.125 35.2427V44.8681H13.2297C13.5442 44.8681 13.8586 44.8608 14.1705 44.8461C23.6051 44.3624 31.1063 36.6597 31.1063 27.2272C31.1063 20.9536 27.7889 15.4447 22.7882 12.3201Z" fill="#B1E50E"/>
<path d="M13.2347 9.60817C13.0094 9.59595 12.7817 9.58862 12.5514 9.58862C9.50146 9.58862 6.70153 10.6635 4.52792 12.4543C1.8691 14.6359 0.138634 17.885 0.00990085 21.5373H0V44.8753H6.51833V32.8313C8.24632 33.7719 10.2243 34.3166 12.3286 34.3533C12.4029 34.3557 12.4772 34.3557 12.5514 34.3557C19.4807 34.3557 25.0979 28.8126 25.0979 21.9722C25.0979 15.1318 19.8496 9.95752 13.2347 9.60817ZM12.5514 27.6302C12.5168 27.6302 12.4821 27.6302 12.4499 27.6277C9.33064 27.5764 6.81788 25.0626 6.81788 21.9722C6.81788 21.9062 6.81788 21.8403 6.82036 21.7743C6.87977 20.1057 7.6695 18.6204 8.88503 17.6236C9.87776 16.8052 11.1577 16.3142 12.5514 16.3142C12.6554 16.3142 12.7594 16.3142 12.8634 16.324C15.8836 16.4828 18.2825 18.9526 18.2825 21.9722C18.2825 24.9917 15.7178 27.6302 12.5514 27.6302Z" fill="#514ED8"/>
</svg>
